<svg width="10" height="8" viewBox="0 0 10 8" fill="none" xmlns="http://www.w3.org/2000/svg">
<path d="M9.66667 0.25H0.333333C0.244928 0.25 0.160143 0.285917 0.0976311 0.34985C0.035119 0.413783 0 0.500494 0 0.590909V7.40909C0 7.49951 0.035119 7.58622 0.0976311 7.65015C0.160143 7.71408 0.244928 7.75 0.333333 7.75H9.66667C9.75507 7.75 9.83986 7.71408 9.90237 7.65015C9.96488 7.58622 10 7.49951 10 7.40909V0.590909C10 0.500494 9.96488 0.413783 9.90237 0.34985C9.83986 0.285917 9.75507 0.25 9.66667 0.25ZM9.33333 0.931818V5.66364L8.27 4.14318C8.24197 4.10284 8.20568 4.06923 8.16367 4.04468C8.12165 4.02013 8.07492 4.00522 8.0267 4.00101C7.97849 3.99679 7.92996 4.00336 7.88448 4.02026C7.83899 4.03716 7.79766 4.06398 7.76333 4.09886L6.5 5.39432L3.73667 2.56818C3.67421 2.50469 3.58973 2.46905 3.50167 2.46905C3.4136 2.46905 3.32912 2.50469 3.26667 2.56818L0.666667 5.22386V0.931818H9.33333ZM0.666667 7.06818V6.18523L3.5 3.2875L6.26333 6.11364C6.32579 6.17713 6.41027 6.21277 6.49833 6.21277C6.5864 6.21277 6.67088 6.17713 6.73333 6.11364L7.95667 4.86591L9.33333 6.83636V7.06818H0.666667ZM6 2.63636C6 2.50151 6.0391 2.36969 6.11235 2.25757C6.18561 2.14544 6.28973 2.05805 6.41154 2.00645C6.53336 1.95484 6.66741 1.94134 6.79673 1.96765C6.92605 1.99395 7.04484 2.05889 7.13807 2.15425C7.23131 2.2496 7.2948 2.37109 7.32052 2.50335C7.34625 2.63561 7.33305 2.7727 7.28259 2.89728C7.23213 3.02187 7.14668 3.12836 7.03705 3.20327C6.92741 3.27819 6.79852 3.31818 6.66667 3.31818C6.48986 3.31818 6.32029 3.24635 6.19526 3.11848C6.07024 2.99062 6 2.81719 6 2.63636Z" fill="black"/>
</svg>
